<svg version="1.1" id="Layer_1" xmlns="http://www.w3.org/2000/svg" xmlns:xlink="http://www.w3.org/1999/xlink" x="0px" y="0px"
	 width="100%" viewBox="0 0 420 161" enable-background="new 0 0 420 161" xml:space="preserve">
<path fill="#FEFFFE" opacity="1.000000" stroke="none" 
	d="
M292.000000,162.000000 
	C194.666718,162.000000 97.833435,162.000000 1.000117,162.000000 
	C1.000078,108.333412 1.000078,54.666828 1.000039,1.000182 
	C140.999847,1.000121 280.999695,1.000121 420.999634,1.000061 
	C420.999756,54.666485 420.999756,108.332970 420.999878,161.999725 
	C378.166656,162.000000 335.333344,162.000000 292.000000,162.000000 
M351.500000,4.135543 
	C246.183746,4.135541 140.867493,4.134237 35.551247,4.136680 
	C15.364446,4.137148 3.484508,15.769425 3.402388,35.979736 
	C3.281867,65.641113 3.223064,95.304787 3.511580,124.963844 
	C3.561979,130.144730 4.533721,135.726440 6.667430,140.397919 
	C12.322153,152.778214 23.119743,156.891418 36.109428,156.887085 
	C152.590561,156.848328 269.071716,156.864517 385.552856,156.863892 
	C386.719299,156.863876 387.888489,156.905350 389.051819,156.842636 
	C406.585327,155.897522 417.984283,143.951019 418.003357,126.395294 
	C418.036682,95.733620 418.043976,65.071846 418.000732,34.410206 
	C417.975037,16.193773 405.839569,4.191253 387.494293,4.141484 
	C375.829620,4.109838 364.164764,4.135613 351.500000,4.135543 
z"/>
<path fill="#74B04D" opacity="1.000000" stroke="none" 
	d="
M352.000000,4.135591 
	C364.164764,4.135613 375.829620,4.109838 387.494293,4.141484 
	C405.839569,4.191253 417.975037,16.193773 418.000732,34.410206 
	C418.043976,65.071846 418.036682,95.733620 418.003357,126.395294 
	C417.984283,143.951019 406.585327,155.897522 389.051819,156.842636 
	C387.888489,156.905350 386.719299,156.863876 385.552856,156.863892 
	C269.071716,156.864517 152.590561,156.848328 36.109428,156.887085 
	C23.119743,156.891418 12.322153,152.778214 6.667430,140.397919 
	C4.533721,135.726440 3.561979,130.144730 3.511580,124.963844 
	C3.223064,95.304787 3.281867,65.641113 3.402388,35.979736 
	C3.484508,15.769425 15.364446,4.137148 35.551247,4.136680 
	C140.867493,4.134237 246.183746,4.135541 352.000000,4.135591 
M208.500000,146.844223 
	C252.316940,146.844238 296.133881,146.844330 339.950836,146.844223 
	C355.611664,146.844193 371.273315,146.941452 386.933105,146.812317 
	C399.337067,146.710022 407.796600,139.753845 407.889160,128.745300 
	C408.159454,96.593918 408.107239,64.438080 407.911041,32.285637 
	C407.854797,23.071697 401.637543,16.347822 392.525879,14.628634 
	C389.930267,14.138897 387.231323,14.028786 384.579712,14.028144 
	C268.622803,14.000093 152.665924,14.003802 36.709030,14.005858 
	C35.543179,14.005878 34.374840,13.990994 33.211864,14.057065 
	C20.910713,14.755909 13.758920,21.781019 13.686426,34.127575 
	C13.505460,64.948364 13.511786,95.771545 13.679959,126.592468 
	C13.748468,139.148041 21.012062,146.243408 33.565063,146.829224 
	C34.895103,146.891281 36.230343,146.843964 37.563168,146.843964 
	C94.208778,146.844238 150.854385,146.844162 208.500000,146.844223 
z"/>
<path fill="#FCFCFC" opacity="1.000000" stroke="none" 
	d="
M208.000000,146.844177 
	C150.854385,146.844162 94.208778,146.844238 37.563168,146.843964 
	C36.230343,146.843964 34.895103,146.891281 33.565063,146.829224 
	C21.012062,146.243408 13.748468,139.148041 13.679959,126.592468 
	C13.511786,95.771545 13.505460,64.948364 13.686426,34.127575 
	C13.758920,21.781019 20.910713,14.755909 33.211864,14.057065 
	C34.374840,13.990994 35.543179,14.005878 36.709030,14.005858 
	C152.665924,14.003802 268.622803,14.000093 384.579712,14.028144 
	C387.231323,14.028786 389.930267,14.138897 392.525879,14.628634 
	C401.637543,16.347822 407.854797,23.071697 407.911041,32.285637 
	C408.107239,64.438080 408.159454,96.593918 407.889160,128.745300 
	C407.796600,139.753845 399.337067,146.710022 386.933105,146.812317 
	C371.273315,146.941452 355.611664,146.844193 339.950836,146.844223 
	C296.133881,146.844330 252.316940,146.844238 208.000000,146.844177 
M35.981922,45.016079 
	C35.981922,45.016079 35.915398,45.046921 36.380840,45.787735 
	C47.759090,45.858341 59.137318,45.945774 70.515633,45.959198 
	C71.224136,45.960033 71.933327,45.380142 73.051285,44.766479 
	C73.092949,44.601784 73.134621,44.437088 73.777176,43.621052 
	C73.838959,38.254925 73.983055,32.887146 73.875465,27.524418 
	C73.858955,26.701744 72.682068,25.902351 71.379356,24.845913 
	C70.919044,24.906137 70.458725,24.966360 69.133774,24.983759 
	C68.768433,26.288399 68.169792,27.577648 68.082520,28.900633 
	C67.842880,32.533310 67.817940,36.180157 66.974564,40.129204 
	C63.590450,40.386883 60.206337,40.644562 56.010189,40.964073 
	C56.010189,37.072186 55.925690,33.809811 56.035530,30.553988 
	C56.132504,27.679722 54.832298,26.614273 51.190990,27.160152 
	C50.969608,31.196020 50.748230,35.231888 50.483788,40.052818 
	C46.780167,39.681782 43.348961,39.338039 39.997089,38.070126 
	C40.001926,35.073513 39.886070,32.070602 40.042149,29.081888 
	C40.237297,25.344967 38.653973,24.274168 35.153370,25.438461 
	C35.153370,31.721382 35.153370,37.954525 35.194530,44.664764 
	C35.364735,44.992489 35.633171,45.133297 35.981922,45.016079 
M72.054764,74.088036 
	C72.054764,74.088036 72.127914,74.095207 72.963623,74.013870 
	C73.295387,68.157898 73.798134,62.302357 73.812828,56.445591 
	C73.815720,55.291641 71.936913,54.132973 70.925919,52.976482 
	C69.964188,54.188042 68.297424,55.330776 68.171181,56.623898 
	C67.771851,60.714554 67.948738,64.861458 67.157112,69.357384 
	C63.503078,69.615768 59.849049,69.874153 56.201500,70.132080 
	C55.618572,56.655678 55.618572,56.655678 51.600063,56.393265 
	C51.600063,60.215084 53.002430,65.027451 51.198071,67.494026 
	C49.460506,69.869278 44.408394,69.819862 40.021839,71.059143 
	C40.021839,66.644615 40.251118,63.666420 39.952759,60.742054 
	C39.691635,58.182693 41.818607,53.971184 35.811802,54.094696 
	C35.811802,60.856270 35.811802,67.455132 36.304001,74.789146 
	C47.586639,74.856720 58.869263,74.940369 70.151955,74.950371 
	C70.801888,74.950951 71.452347,74.352097 72.054764,74.088036 
M72.944710,102.135231 
	C67.651123,101.713470 62.357533,101.291710 57.058186,100.058929 
	C56.294289,95.014076 59.123425,92.628891 63.416218,91.032265 
	C66.286888,89.964569 69.103661,88.608421 71.672157,86.957550 
	C72.463524,86.448914 72.632698,84.514992 72.509911,83.291588 
	C72.467453,82.868546 70.446335,82.074799 69.721985,82.380753 
	C64.536331,84.571068 59.452103,87.001526 54.201714,89.417305 
	C51.437752,86.558693 48.873230,83.403183 43.307999,84.665230 
	C38.749630,85.698944 34.384277,91.004425 35.228828,95.937683 
	C35.113613,98.864395 34.658005,101.837479 35.047295,104.695473 
	C35.207588,105.872314 37.166161,107.680862 38.339333,107.706383 
	C49.091705,107.940331 59.852757,107.946075 70.607719,107.783272 
	C73.737022,107.735909 74.970528,105.942780 72.944710,102.135231 
M385.261322,119.614510 
	C385.452484,119.335945 385.705780,119.136177 386.717407,118.918182 
	C393.483276,111.633125 393.131744,102.929062 390.776733,94.346375 
	C389.646210,90.226357 388.470703,85.081688 382.133423,83.826004 
	C375.688446,79.911926 369.246948,75.992111 362.797211,72.085892 
	C358.873199,69.709381 354.936493,67.353836 351.034729,64.197975 
	C350.815033,63.405029 350.629852,62.600582 350.370270,61.820908 
	C347.407898,52.922550 350.604523,47.839230 359.827240,45.720184 
	C366.729431,44.134308 372.368347,47.171322 378.262939,49.610306 
	C380.988464,50.738056 383.837524,52.649334 385.883392,48.716976 
	C388.106476,44.443935 386.714325,39.853233 382.265961,37.694294 
	C371.944580,28.622168 350.090210,28.598272 340.191071,37.979721 
	C337.628815,40.407986 335.420715,43.652370 334.173431,46.947182 
	C329.418060,59.508739 334.532684,71.885506 347.177460,78.919617 
	C353.837830,82.624680 360.894379,85.638275 367.439301,89.524467 
	C374.083771,93.469765 376.265594,98.928139 374.850403,105.512489 
	C373.546906,111.577278 368.491241,115.935715 361.339508,117.049347 
	C352.737305,118.388832 344.916840,116.062325 337.417297,112.000504 
	C335.635803,111.035629 333.521667,110.684898 331.560516,110.051682 
	C331.151184,112.587204 329.928253,115.350113 330.555908,117.595825 
	C331.215057,119.954285 333.646973,121.817276 334.705414,124.178413 
	C334.797577,124.729897 334.689667,125.566086 335.010773,125.791725 
	C346.847412,134.109543 366.259369,133.981064 378.653259,127.468765 
	C379.343445,127.106117 379.557678,125.837746 380.467957,124.665756 
	C380.999207,124.127625 381.530487,123.589493 382.790039,123.030167 
	C383.542236,122.038399 384.294403,121.046631 385.261322,119.614510 
M133.812927,80.036575 
	C134.944687,79.443169 136.249115,79.045837 137.180878,78.225319 
	C144.583893,71.706062 147.602264,59.660049 143.730331,50.112667 
	C142.637009,47.416775 139.837875,45.412674 137.232635,42.784798 
	C133.191360,37.517342 127.733437,34.029114 121.323021,33.469830 
	C110.582993,32.532803 99.758003,32.435398 88.965050,32.313244 
	C85.275421,32.271484 84.038467,35.072147 84.041115,38.526802 
	C84.062691,66.662483 84.099953,94.798355 84.005188,122.933739 
	C83.986671,128.430847 87.963051,127.288383 90.999611,127.498840 
	C94.318680,127.728867 97.250931,127.446396 97.142975,122.623230 
	C96.904594,111.973694 97.073822,101.315041 97.076599,90.660103 
	C97.077049,88.906624 97.076660,87.153137 97.076660,85.469620 
	C113.790749,84.178703 118.128563,86.742325 124.391403,101.150223 
	C125.316948,103.279457 126.116806,105.462959 127.013290,107.605247 
	C129.695694,114.015221 132.397217,120.417213 135.102631,127.586128 
	C137.512436,130.675629 144.118515,132.456451 147.452072,130.542267 
	C151.410156,128.269470 150.532822,124.522949 149.137314,121.325592 
	C143.626129,108.698509 140.410156,94.953720 131.172241,84.195587 
	C131.858185,82.749306 132.481842,81.434372 133.812927,80.036575 
M37.145569,115.013161 
	C36.668743,115.892166 35.789867,116.767082 35.780880,117.650848 
	C35.725914,123.055367 35.868221,128.461899 36.191780,134.741806 
	C47.990402,134.822052 59.788998,134.913727 71.587730,134.939636 
	C72.045998,134.940643 72.505653,134.311234 73.388023,133.455078 
	C72.942680,132.288559 72.497337,131.122055 71.653763,129.175034 
	C66.790146,129.175034 61.926521,129.175034 57.571941,129.175034 
	C56.975731,124.208435 56.488033,120.145775 55.121231,116.011169 
	C54.045841,116.920250 52.160057,117.736732 52.043663,118.755394 
	C51.660759,122.106522 51.919140,125.530930 51.017124,128.967041 
	C47.415543,128.967041 43.813957,128.967041 39.996601,128.967041 
	C39.996601,124.813332 40.114613,121.167160 39.907257,117.539581 
	C39.859955,116.712105 38.688641,115.948868 37.145569,115.013161 
M184.125916,127.617813 
	C186.733154,132.434464 191.289780,131.361176 195.107910,130.551682 
	C198.713028,129.787354 199.060867,126.300156 199.042847,122.879150 
	C198.942902,103.908768 198.916504,84.937057 199.042038,65.966980 
	C199.082199,59.899616 199.663147,53.835827 199.996674,47.770405 
	C205.920975,47.496918 211.845795,47.233692 217.769318,46.944195 
	C219.751450,46.847317 222.199875,47.357483 223.595810,46.385155 
	C225.482819,45.070774 227.163910,42.771172 227.810989,40.565060 
	C228.426956,38.465004 228.796371,35.266811 224.360489,34.478203 
	C222.563385,33.698395 220.771759,32.255463 218.968353,32.240593 
	C199.323639,32.078594 179.676346,32.228836 160.031586,32.069054 
	C155.902679,32.035465 153.871475,33.102421 153.827911,37.586407 
	C153.785217,41.980923 155.597839,43.412365 159.817139,43.290981 
	C167.404755,43.072712 175.003128,43.229347 182.976318,43.229347 
	C182.976318,46.315857 182.976288,48.792267 182.976303,51.268677 
	C182.976471,74.577568 182.951431,97.886528 183.024185,121.195198 
	C183.030090,123.086563 183.705841,124.975853 184.125916,127.617813 
M316.843445,92.135239 
	C316.956146,83.850662 317.677765,75.517654 317.023651,67.294075 
	C316.248688,57.551605 312.978760,48.471363 305.638306,41.432003 
	C294.935638,31.168285 281.784363,29.583399 267.992340,31.571632 
	C252.752991,33.768501 242.115158,42.233463 236.943054,56.906662 
	C231.628311,71.984467 231.887207,87.290077 236.164948,102.532204 
	C238.376068,110.410675 242.681519,117.184151 249.575607,121.780197 
	C276.478058,139.715118 311.372681,124.634804 316.843445,92.135239 
z"/>
<path fill="#060606" opacity="1.000000" stroke="none" 
	d="
M316.698029,92.539833 
	C311.372681,124.634804 276.478058,139.715118 249.575607,121.780197 
	C242.681519,117.184151 238.376068,110.410675 236.164948,102.532204 
	C231.887207,87.290077 231.628311,71.984467 236.943054,56.906662 
	C242.115158,42.233463 252.752991,33.768501 267.992340,31.571632 
	C281.784363,29.583399 294.935638,31.168285 305.638306,41.432003 
	C312.978760,48.471363 316.248688,57.551605 317.023651,67.294075 
	C317.677765,75.517654 316.956146,83.850662 316.698029,92.539833 
M255.478287,109.999901 
	C271.214417,124.276085 295.604767,117.914864 301.713531,97.709763 
	C305.405792,85.497322 305.305817,73.014374 301.764160,60.767597 
	C298.272858,48.694870 289.603027,42.419308 277.067627,42.139320 
	C263.645386,41.839527 254.254669,47.914009 249.941177,59.734993 
	C246.126434,70.189110 245.810120,81.058609 247.896545,91.719788 
	C249.097992,97.858810 252.566040,103.554245 255.478287,109.999901 
z"/>
<path fill="#060606" opacity="1.000000" stroke="none" 
	d="
M135.091263,126.822311 
	C132.397217,120.417213 129.695694,114.015221 127.013290,107.605247 
	C126.116806,105.462959 125.316948,103.279457 124.391403,101.150223 
	C118.128563,86.742325 113.790749,84.178703 97.076660,85.469620 
	C97.076660,87.153137 97.077049,88.906624 97.076599,90.660103 
	C97.073822,101.315041 96.904594,111.973694 97.142975,122.623230 
	C97.250931,127.446396 94.318680,127.728867 90.999611,127.498840 
	C87.963051,127.288383 83.986671,128.430847 84.005188,122.933739 
	C84.099953,94.798355 84.062691,66.662483 84.041115,38.526802 
	C84.038467,35.072147 85.275421,32.271484 88.965050,32.313244 
	C99.758003,32.435398 110.582993,32.532803 121.323021,33.469830 
	C127.733437,34.029114 133.191360,37.517342 137.573853,43.314186 
	C139.157715,47.186947 140.400391,50.530327 141.516541,54.323547 
	C142.054993,64.226669 139.227325,72.079468 130.898010,77.319931 
	C129.230087,78.369324 127.320099,79.032547 125.641037,80.067413 
	C125.421555,80.202698 125.917328,81.498474 126.317261,82.536423 
	C130.092834,88.141708 134.054016,93.242477 137.052170,98.857460 
	C139.929169,104.245506 141.967041,110.108772 144.063568,115.875938 
	C145.269516,119.193268 145.859955,122.734367 146.727463,126.174728 
	C142.848724,126.390587 138.970001,126.606445 135.091263,126.822311 
M100.932396,74.373375 
	C104.735748,74.314438 108.561859,74.501747 112.338402,74.152718 
	C126.545921,72.839661 132.380020,61.248325 125.032509,48.208050 
	C116.902061,40.183289 106.787804,43.773312 96.812111,42.807903 
	C96.812111,53.026539 96.745155,62.585419 96.950325,72.138451 
	C96.965324,72.837044 98.950104,73.493332 100.932396,74.373375 
z"/>
<path fill="#060606" opacity="1.000000" stroke="none" 
	d="
M351.005493,64.988869 
	C354.936493,67.353836 358.873199,69.709381 362.797211,72.085892 
	C369.246948,75.992111 375.688446,79.911926 382.525146,84.318939 
	C384.673096,88.192841 386.429352,91.573807 388.113342,95.416351 
	C388.985046,112.864243 381.680084,123.894455 366.723633,126.920906 
	C360.955780,128.088028 354.890594,127.785774 348.647522,128.055084 
	C347.899445,127.925980 347.464752,127.894775 346.858612,127.617630 
	C346.105652,127.325661 345.524139,127.279640 344.586700,127.117615 
	C341.255280,125.966660 338.279724,124.931717 335.304199,123.896782 
	C333.646973,121.817276 331.215057,119.954285 330.555908,117.595825 
	C329.928253,115.350113 331.151184,112.587204 331.560516,110.051682 
	C333.521667,110.684898 335.635803,111.035629 337.417297,112.000504 
	C344.916840,116.062325 352.737305,118.388832 361.339508,117.049347 
	C368.491241,115.935715 373.546906,111.577278 374.850403,105.512489 
	C376.265594,98.928139 374.083771,93.469765 367.439301,89.524467 
	C360.894379,85.638275 353.837830,82.624680 347.177460,78.919617 
	C334.532684,71.885506 329.418060,59.508739 334.173431,46.947182 
	C335.420715,43.652370 337.628815,40.407986 340.191071,37.979721 
	C350.090210,28.598272 371.944580,28.622168 382.555420,38.341442 
	C382.844849,41.974655 382.844849,44.960720 382.844849,49.092690 
	C379.447876,47.414173 377.508881,46.556385 375.665955,45.526657 
	C370.114380,42.424805 364.172363,41.159477 357.880280,41.849308 
	C352.585480,42.429806 348.266113,44.725845 346.347351,50.025166 
	C344.334900,55.583153 346.114960,60.934906 351.005493,64.988869 
z"/>
<path fill="#070707" opacity="1.000000" stroke="none" 
	d="
M184.070343,126.866104 
	C183.705841,124.975853 183.030090,123.086563 183.024185,121.195198 
	C182.951431,97.886528 182.976471,74.577568 182.976303,51.268677 
	C182.976288,48.792267 182.976318,46.315857 182.976318,43.229347 
	C175.003128,43.229347 167.404755,43.072712 159.817139,43.290981 
	C155.597839,43.412365 153.785217,41.980923 153.827911,37.586407 
	C153.871475,33.102421 155.902679,32.035465 160.031586,32.069054 
	C179.676346,32.228836 199.323639,32.078594 218.968353,32.240593 
	C220.771759,32.255463 222.563385,33.698395 224.527267,35.173439 
	C224.867615,42.763050 224.552673,43.111412 218.016037,43.118103 
	C210.732330,43.125557 203.448624,43.119812 195.760071,43.119812 
	C195.760071,46.012836 195.760117,48.318825 195.760071,50.624817 
	C195.759644,72.621399 195.759109,94.617981 195.758759,116.614563 
	C195.758560,128.310181 195.758698,128.310181 184.070343,126.866104 
z"/>
<path fill="#D0D0D0" opacity="1.000000" stroke="none" 
	d="
M184.098129,127.241959 
	C195.758698,128.310181 195.758560,128.310181 195.758759,116.614563 
	C195.759109,94.617981 195.759644,72.621399 195.760071,50.624817 
	C195.760117,48.318825 195.760071,46.012836 195.760071,43.119812 
	C203.448624,43.119812 210.732330,43.125557 218.016037,43.118103 
	C224.552673,43.111412 224.867615,42.763050 224.769043,35.460598 
	C228.796371,35.266811 228.426956,38.465004 227.810989,40.565060 
	C227.163910,42.771172 225.482819,45.070774 223.595810,46.385155 
	C222.199875,47.357483 219.751450,46.847317 217.769318,46.944195 
	C211.845795,47.233692 205.920975,47.496918 199.996674,47.770405 
	C199.663147,53.835827 199.082199,59.899616 199.042038,65.966980 
	C198.916504,84.937057 198.942902,103.908768 199.042847,122.879150 
	C199.060867,126.300156 198.713028,129.787354 195.107910,130.551682 
	C191.289780,131.361176 186.733154,132.434464 184.098129,127.241959 
z"/>
<path fill="#6DA846" opacity="1.000000" stroke="none" 
	d="
M35.938255,95.909782 
	C34.384277,91.004425 38.749630,85.698944 43.307999,84.665230 
	C48.873230,83.403183 51.437752,86.558693 54.201714,89.417305 
	C59.452103,87.001526 64.536331,84.571068 69.721985,82.380753 
	C70.446335,82.074799 72.467453,82.868546 72.509911,83.291588 
	C72.632698,84.514992 72.463524,86.448914 71.672157,86.957550 
	C69.103661,88.608421 66.286888,89.964569 63.416218,91.032265 
	C59.123425,92.628891 56.294289,95.014076 56.773415,100.700630 
	C57.359516,101.902794 58.208992,102.905121 59.104900,102.948502 
	C63.363705,103.154694 67.635155,103.099770 71.930664,103.547440 
	C70.544762,104.629860 69.144928,105.845497 67.713333,105.884132 
	C60.394932,106.081665 53.065857,106.096703 45.745186,105.947044 
	C34.892162,105.725174 35.687515,108.402466 35.938255,95.909782 
M50.805916,92.359619 
	C47.943489,91.663773 44.567467,89.753548 42.388985,90.674881 
	C40.785679,91.352974 40.701401,95.722656 40.043598,98.472061 
	C39.859859,99.240021 40.043056,100.095772 39.508022,101.387749 
	C42.039516,101.933479 44.557678,102.813011 47.106903,102.914818 
	C49.000633,102.990440 52.588116,102.032570 52.581318,101.577454 
	C52.538475,98.708473 51.701633,95.851334 50.805916,92.359619 
z"/>
<path fill="#6DA945" opacity="1.000000" stroke="none" 
	d="
M35.811802,74.054001 
	C35.811802,67.455132 35.811802,60.856270 35.811802,54.094696 
	C41.818607,53.971184 39.691635,58.182693 39.952759,60.742054 
	C40.251118,63.666420 40.021839,66.644615 40.021839,71.059143 
	C44.408394,69.819862 49.460506,69.869278 51.198071,67.494026 
	C53.002430,65.027451 51.600063,60.215084 51.600063,56.393265 
	C55.618572,56.655678 55.618572,56.655678 56.201500,70.132080 
	C59.849049,69.874153 63.503078,69.615768 67.659592,69.380035 
	C68.369629,69.688545 68.649933,69.837776 69.307831,69.586197 
	C69.720543,64.559380 69.828415,59.796741 70.181030,54.771069 
	C70.956207,55.596027 71.906616,56.669083 71.945961,57.774555 
	C72.139412,63.210045 72.090950,68.654144 72.127914,74.095207 
	C72.127914,74.095207 72.054764,74.088036 71.603729,74.051346 
	C59.372398,74.027771 47.592098,74.040886 35.811802,74.054001 
z"/>
<path fill="#6AA343" opacity="1.000000" stroke="none" 
	d="
M73.176285,44.272392 
	C73.134621,44.437088 73.092949,44.601784 72.403252,44.880638 
	C59.808613,45.012173 47.862003,45.029545 35.915398,45.046921 
	C35.915398,45.046921 35.981922,45.016079 35.898659,44.857365 
	C35.670578,44.430035 35.449902,44.259705 35.153370,44.187668 
	C35.153370,37.954525 35.153370,31.721382 35.153370,25.438461 
	C38.653973,24.274168 40.237297,25.344967 40.042149,29.081888 
	C39.886070,32.070602 40.001926,35.073513 39.670048,38.764290 
	C43.317398,40.147938 47.291790,40.837418 52.093658,41.670448 
	C52.093658,35.889515 52.093658,31.466932 52.093658,27.044348 
	C54.832298,26.614273 56.132504,27.679722 56.035530,30.553988 
	C55.925690,33.809811 56.010189,37.072186 56.010189,40.964073 
	C60.206337,40.644562 63.590450,40.386883 67.593750,40.214401 
	C68.800598,39.024258 69.814713,37.775242 69.895363,36.468609 
	C70.130005,32.666965 69.990929,28.842249 69.998413,25.026585 
	C70.458725,24.966360 70.919044,24.906137 71.702957,25.431078 
	C72.409798,32.101627 72.793037,38.187008 73.176285,44.272392 
z"/>
<path fill="#6FAC46" opacity="1.000000" stroke="none" 
	d="
M72.052002,129.955536 
	C72.497337,131.122055 72.942680,132.288559 72.710922,133.730255 
	C60.004135,133.959549 47.974461,133.913651 35.944782,133.867752 
	C35.868221,128.461899 35.725914,123.055367 35.780880,117.650848 
	C35.789867,116.767082 36.668743,115.892166 37.797073,115.440628 
	C38.747356,120.437332 39.046135,125.006554 39.401066,130.434540 
	C43.759911,129.910172 47.845547,129.418686 51.931179,128.927185 
	C51.919140,125.530930 51.660759,122.106522 52.043663,118.755394 
	C52.160057,117.736732 54.045841,116.920250 55.558197,116.506721 
	C55.995163,121.231491 55.995163,125.460709 55.995163,129.955536 
	C61.835720,129.955536 66.943863,129.955536 72.052002,129.955536 
z"/>
<path fill="#CFCFCF" opacity="1.000000" stroke="none" 
	d="
M351.020111,64.593422 
	C346.114960,60.934906 344.334900,55.583153 346.347351,50.025166 
	C348.266113,44.725845 352.585480,42.429806 357.880280,41.849308 
	C364.172363,41.159477 370.114380,42.424805 375.665955,45.526657 
	C377.508881,46.556385 379.447876,47.414173 382.844849,49.092690 
	C382.844849,44.960720 382.844849,41.974655 382.823944,38.546516 
	C386.714325,39.853233 388.106476,44.443935 385.883392,48.716976 
	C383.837524,52.649334 380.988464,50.738056 378.262939,49.610306 
	C372.368347,47.171322 366.729431,44.134308 359.827240,45.720184 
	C350.604523,47.839230 347.407898,52.922550 350.370270,61.820908 
	C350.629852,62.600582 350.815033,63.405029 351.020111,64.593422 
z"/>
<path fill="#D5D5D5" opacity="1.000000" stroke="none" 
	d="
M135.096954,127.204224 
	C138.970001,126.606445 142.848724,126.390587 146.727463,126.174728 
	C145.859955,122.734367 145.269516,119.193268 144.063568,115.875938 
	C141.967041,110.108772 139.929169,104.245506 137.052170,98.857460 
	C134.054016,93.242477 130.092834,88.141708 126.723846,82.444763 
	C128.874557,81.312401 130.854126,80.551384 132.901215,79.872986 
	C132.968719,79.955612 133.105484,80.119431 133.105499,80.119431 
	C132.481842,81.434372 131.858185,82.749306 131.172241,84.195587 
	C140.410156,94.953720 143.626129,108.698509 149.137314,121.325592 
	C150.532822,124.522949 151.410156,128.269470 147.452072,130.542267 
	C144.118515,132.456451 137.512436,130.675629 135.096954,127.204224 
z"/>
<path fill="#B5B5B5" opacity="1.000000" stroke="none" 
	d="
M348.960876,128.152985 
	C354.890594,127.785774 360.955780,128.088028 366.723633,126.920906 
	C381.680084,123.894455 388.985046,112.864243 388.492859,95.530426 
	C389.300232,96.393425 389.809601,97.581985 389.986084,98.818077 
	C391.011292,105.999268 388.908966,112.589310 386.021210,119.015205 
	C385.705780,119.136177 385.452484,119.335945 384.854431,119.930054 
	C383.652283,121.180840 382.856995,122.116096 382.061737,123.051353 
	C381.530487,123.589493 380.999207,124.127625 379.864746,124.850708 
	C371.075195,129.789825 362.153900,130.742477 352.954224,129.932251 
	C351.581512,129.811356 350.289978,128.769043 348.960876,128.152985 
z"/>
<path fill="#E0E0E0" opacity="1.000000" stroke="none" 
	d="
M348.647522,128.055084 
	C350.289978,128.769043 351.581512,129.811356 352.954224,129.932251 
	C362.153900,130.742477 371.075195,129.789825 379.627472,125.013298 
	C379.557678,125.837746 379.343445,127.106117 378.653259,127.468765 
	C366.259369,133.981064 346.847412,134.109543 335.010773,125.791725 
	C334.689667,125.566086 334.797577,124.729897 335.004822,124.037598 
	C338.279724,124.931717 341.255280,125.966660 344.624359,127.405228 
	C345.688629,127.827095 346.359314,127.845337 347.030029,127.863579 
	C347.464752,127.894775 347.899445,127.925980 348.647522,128.055084 
z"/>
<path fill="#5A694F" opacity="1.000000" stroke="none" 
	d="
M35.583542,95.923737 
	C35.687515,108.402466 34.892162,105.725174 45.745186,105.947044 
	C53.065857,106.096703 60.394932,106.081665 67.713333,105.884132 
	C69.144928,105.845497 70.544762,104.629860 72.254105,103.484856 
	C72.765823,102.980019 72.982666,102.947411 73.199516,102.914810 
	C74.970528,105.942780 73.737022,107.735909 70.607719,107.783272 
	C59.852757,107.946075 49.091705,107.940331 38.339333,107.706383 
	C37.166161,107.680862 35.207588,105.872314 35.047295,104.695473 
	C34.658005,101.837479 35.113613,98.864395 35.583542,95.923737 
z"/>
<path fill="#D5D5D5" opacity="1.000000" stroke="none" 
	d="
M141.643051,53.873703 
	C140.400391,50.530327 139.157715,47.186947 137.868073,43.467426 
	C139.837875,45.412674 142.637009,47.416775 143.730331,50.112667 
	C147.602264,59.660049 144.583893,71.706062 137.180878,78.225319 
	C136.249115,79.045837 134.944687,79.443169 133.459198,80.078003 
	C133.105484,80.119431 132.968719,79.955612 133.087189,79.604416 
	C134.820419,77.613907 136.468170,76.005630 138.043686,74.329437 
	C142.602264,69.479538 144.383835,59.258327 141.643051,53.873703 
z"/>
<path fill="#E0E0E0" opacity="1.000000" stroke="none" 
	d="
M386.369324,118.966690 
	C388.908966,112.589310 391.011292,105.999268 389.986084,98.818077 
	C389.809601,97.581985 389.300232,96.393425 388.565094,95.068840 
	C386.429352,91.573807 384.673096,88.192841 382.816193,84.473465 
	C388.470703,85.081688 389.646210,90.226357 390.776733,94.346375 
	C393.131744,102.929062 393.483276,111.633125 386.369324,118.966690 
z"/>
<path fill="#4F6242" opacity="1.000000" stroke="none" 
	d="
M69.002991,69.850380 
	C68.649933,69.837776 68.369629,69.688545 68.032410,69.194649 
	C67.948738,64.861458 67.771851,60.714554 68.171181,56.623898 
	C68.297424,55.330776 69.964188,54.188042 70.925919,52.976479 
	C71.936913,54.132973 73.815720,55.291641 73.812828,56.445591 
	C73.798134,62.302357 73.295387,68.157898 72.545761,74.054535 
	C72.090950,68.654144 72.139412,63.210045 71.945961,57.774555 
	C71.906616,56.669083 70.956207,55.596027 69.898445,55.066833 
	C69.248405,60.367218 69.125702,65.108803 69.002991,69.850380 
z"/>
<path fill="#506442" opacity="1.000000" stroke="none" 
	d="
M73.476730,43.946724 
	C72.793037,38.187008 72.409798,32.101627 72.034195,25.554218 
	C72.682068,25.902351 73.858955,26.701744 73.875465,27.524418 
	C73.983055,32.887146 73.838959,38.254925 73.476730,43.946724 
z"/>
<path fill="#3B4137" opacity="1.000000" stroke="none" 
	d="
M36.148117,45.417328 
	C47.862003,45.029545 59.808613,45.012173 72.198708,45.032616 
	C71.933327,45.380142 71.224136,45.960033 70.515633,45.959198 
	C59.137318,45.945774 47.759090,45.858341 36.148117,45.417328 
z"/>
<path fill="#010100" opacity="1.000000" stroke="none" 
	d="
M36.068283,134.304779 
	C47.974461,133.913651 60.004135,133.959549 72.499237,133.990509 
	C72.505653,134.311234 72.045998,134.940643 71.587730,134.939636 
	C59.788998,134.913727 47.990402,134.822052 36.068283,134.304779 
z"/>
<path fill="#010101" opacity="1.000000" stroke="none" 
	d="
M36.057899,74.421577 
	C47.592098,74.040886 59.372398,74.027771 71.627625,74.023438 
	C71.452347,74.352097 70.801888,74.950951 70.151955,74.950371 
	C58.869263,74.940369 47.586639,74.856720 36.057899,74.421577 
z"/>
<path fill="#58674D" opacity="1.000000" stroke="none" 
	d="
M73.072113,102.525024 
	C72.982666,102.947411 72.765823,102.980019 72.225540,103.075211 
	C67.635155,103.099770 63.363705,103.154694 59.104900,102.948502 
	C58.208992,102.905121 57.359516,101.902794 56.776291,101.106140 
	C62.357533,101.291710 67.651123,101.713470 73.072113,102.525024 
z"/>
<path fill="#4F6441" opacity="1.000000" stroke="none" 
	d="
M69.566101,25.005171 
	C69.990929,28.842249 70.130005,32.666965 69.895363,36.468609 
	C69.814713,37.775242 68.800598,39.024258 67.960480,40.060493 
	C67.817940,36.180157 67.842880,32.533310 68.082520,28.900633 
	C68.169792,27.577648 68.768433,26.288399 69.566101,25.005171 
z"/>
<path fill="#010100" opacity="1.000000" stroke="none" 
	d="
M71.852882,129.565277 
	C66.943863,129.955536 61.835720,129.955536 55.995163,129.955536 
	C55.995163,125.460709 55.995163,121.231491 55.997749,116.542694 
	C56.488033,120.145775 56.975731,124.208435 57.571941,129.175034 
	C61.926521,129.175034 66.790146,129.175034 71.852882,129.565277 
z"/>
<path fill="#293521" opacity="1.000000" stroke="none" 
	d="
M51.642326,27.102249 
	C52.093658,31.466932 52.093658,35.889515 52.093658,41.670448 
	C47.291790,40.837418 43.317398,40.147938 39.630379,39.226379 
	C43.348961,39.338039 46.780167,39.681782 50.483788,40.052818 
	C50.748230,35.231888 50.969608,31.196020 51.642326,27.102249 
z"/>
<path fill="#020202" opacity="1.000000" stroke="none" 
	d="
M51.474152,128.947113 
	C47.845547,129.418686 43.759911,129.910172 39.401066,130.434540 
	C39.046135,125.006554 38.747356,120.437332 38.241623,115.512085 
	C38.688641,115.948868 39.859955,116.712105 39.907257,117.539581 
	C40.114613,121.167160 39.996601,124.813332 39.996601,128.967041 
	C43.813957,128.967041 47.415543,128.967041 51.474152,128.947113 
z"/>
<path fill="#E0E0E0" opacity="1.000000" stroke="none" 
	d="
M382.425903,123.040756 
	C382.856995,122.116096 383.652283,121.180840 384.747070,120.150223 
	C384.294403,121.046631 383.542236,122.038399 382.425903,123.040756 
z"/>
<path fill="#3B4137" opacity="1.000000" stroke="none" 
	d="
M35.173950,44.426216 
	C35.449902,44.259705 35.670578,44.430035 35.907616,44.892914 
	C35.633171,45.133297 35.364735,44.992489 35.173950,44.426216 
z"/>
<path fill="#F8F8F8" opacity="1.000000" stroke="none" 
	d="
M255.246063,109.724625 
	C252.566040,103.554245 249.097992,97.858810 247.896545,91.719788 
	C245.810120,81.058609 246.126434,70.189110 249.941177,59.734993 
	C254.254669,47.914009 263.645386,41.839527 277.067627,42.139320 
	C289.603027,42.419308 298.272858,48.694870 301.764160,60.767597 
	C305.305817,73.014374 305.405792,85.497322 301.713531,97.709763 
	C295.604767,117.914864 271.214417,124.276085 255.246063,109.724625 
z"/>
<path fill="#FBFBFB" opacity="1.000000" stroke="none" 
	d="
M125.162041,48.896339 
	C132.380020,61.248325 126.545921,72.839661 112.338402,74.152718 
	C108.561859,74.501747 104.735748,74.314438 100.448120,73.792320 
	C99.955116,65.932899 99.999191,58.653923 99.915649,51.376415 
	C99.872986,47.660786 101.513466,45.545971 105.254448,45.992420 
	C111.911026,46.786816 118.528320,47.910427 125.162041,48.896339 
z"/>
<path fill="#BCBCBC" opacity="1.000000" stroke="none" 
	d="
M125.097275,48.552193 
	C118.528320,47.910427 111.911026,46.786816 105.254448,45.992420 
	C101.513466,45.545971 99.872986,47.660786 99.915649,51.376415 
	C99.999191,58.653923 99.955116,65.932899 99.991478,73.690277 
	C98.950104,73.493332 96.965324,72.837044 96.950325,72.138451 
	C96.745155,62.585419 96.812111,53.026539 96.812111,42.807903 
	C106.787804,43.773312 116.902061,40.183289 125.097275,48.552193 
z"/>
<path fill="#A7A7A7" opacity="1.000000" stroke="none" 
	d="
M141.516541,54.323547 
	C144.383835,59.258327 142.602264,69.479538 138.043686,74.329437 
	C136.468170,76.005630 134.820419,77.613907 133.019684,79.521790 
	C130.854126,80.551384 128.874557,81.312401 126.488388,82.165070 
	C125.917328,81.498474 125.421555,80.202698 125.641037,80.067413 
	C127.320099,79.032547 129.230087,78.369324 130.898010,77.319931 
	C139.227325,72.079468 142.054993,64.226669 141.516541,54.323547 
z"/>
<path fill="#B5B5B5" opacity="1.000000" stroke="none" 
	d="
M346.858612,127.617630 
	C346.359314,127.845337 345.688629,127.827095 344.980255,127.521233 
	C345.524139,127.279640 346.105652,127.325661 346.858612,127.617630 
z"/>
<path fill="#FBFBFB" opacity="1.000000" stroke="none" 
	d="
M40.057930,100.911255 
	C40.043056,100.095772 39.859859,99.240021 40.043598,98.472061 
	C40.701401,95.722656 40.785679,91.352974 42.388985,90.674881 
	C44.567467,89.753548 47.943489,91.663773 50.892860,93.134415 
	C51.078159,96.157745 51.176510,98.406281 51.286079,100.911255 
	C47.240738,100.911255 43.649334,100.911255 40.057930,100.911255 
z"/>
<path fill="#59694E" opacity="1.000000" stroke="none" 
	d="
M39.782974,101.149506 
	C43.649334,100.911255 47.240738,100.911255 51.286079,100.911255 
	C51.176510,98.406281 51.078159,96.157745 51.053448,93.449753 
	C51.701633,95.851334 52.538475,98.708473 52.581318,101.577454 
	C52.588116,102.032570 49.000633,102.990440 47.106903,102.914818 
	C44.557678,102.813011 42.039516,101.933479 39.782974,101.149506 
z"/>
<path fill="#4F6242" opacity="1.000000" stroke="none" 
	d="
M69.307831,69.586197 
	C69.125702,65.108803 69.248405,60.367218 69.653702,55.329872 
	C69.828415,59.796741 69.720543,64.559380 69.307831,69.586197 
z"/>
</svg>